<svg width="36" height="26" viewBox="0 0 36 26" fill="none" xmlns="http://www.w3.org/2000/svg">
<path d="M35.9988 12.8748C36.0316 15.7413 35.4131 18.4805 34.1981 21.0976C32.4631 24.8241 28.3036 27.8712 24.5052 24.6277C21.4074 21.9841 20.8328 16.6172 16.1916 15.8316C10.0507 15.1096 9.90294 22.0159 5.89115 22.7963C1.41961 23.6775 -0.0636022 16.3837 0.00207516 13.0712C0.0677525 9.75868 0.97629 5.10315 4.8622 5.10315C9.33374 5.10315 9.63476 11.6697 15.3104 11.3141C20.9313 10.9425 21.0298 4.11047 24.7022 1.1855C27.8712 -1.34134 31.5984 0.511321 33.4647 3.55308C35.1942 6.36657 35.955 9.66844 35.9933 12.8748H35.9988Z" fill="#F6FEFD"/>
</svg>
